<svg width="82" height="50" viewBox="0 0 82 50" fill="none" xmlns="http://www.w3.org/2000/svg">
<g clipPath="url(#clip0_21_374)">
<path d="M40.5397 49.8558C40.2638 49.8558 40.0061 49.7822 39.7668 49.6534L37.3192 48.1996C36.951 47.997 37.1351 47.9234 37.2456 47.8867C37.7424 47.7211 37.8345 47.6841 38.3498 47.3898C38.405 47.3529 38.4787 47.3714 38.5338 47.4082L40.4111 48.5308C40.4846 48.5676 40.5767 48.5676 40.6318 48.5308L47.9749 44.2795C48.0485 44.2427 48.0854 44.169 48.0854 44.0771V35.593C48.0854 35.5008 48.0485 35.4274 47.9749 35.3905L40.6318 31.1577C40.5582 31.1207 40.4662 31.1207 40.4111 31.1577L33.0679 35.3905C32.9944 35.4273 32.9574 35.5193 32.9574 35.5929V44.0769C32.9574 44.1507 32.9944 44.2426 33.0679 44.2795L35.074 45.4389C36.1598 45.991 36.8407 45.3469 36.8407 44.7027V36.329C36.8407 36.2187 36.9327 36.1082 37.0615 36.1082H38.0001C38.1106 36.1082 38.2209 36.2002 38.2209 36.329V44.7027C38.2209 46.1566 37.4295 47.0032 36.0493 47.0032C35.626 47.0032 35.2948 47.0032 34.3561 46.543L32.4238 45.4389C31.9453 45.1629 31.6509 44.6475 31.6509 44.0954V35.6113C31.6509 35.0593 31.9453 34.5438 32.4238 34.2679L39.7668 30.0166C40.227 29.759 40.8528 29.759 41.3128 30.0166L48.6558 34.2679C49.1343 34.5438 49.4289 35.0593 49.4289 35.6113V44.0954C49.4289 44.6475 49.1343 45.1629 48.6558 45.4389L41.3128 49.6902C41.0735 49.8007 40.7974 49.8558 40.5397 49.8558ZM42.8036 44.0219C39.583 44.0219 38.9205 42.5496 38.9205 41.2981C38.9205 41.1876 39.0125 41.0773 39.1413 41.0773H40.0983C40.2087 41.0773 40.3007 41.1508 40.3007 41.2613C40.448 42.2367 40.8713 42.7152 42.8221 42.7152C44.3679 42.7152 45.0307 42.3655 45.0307 41.5373C45.0307 41.0588 44.8464 40.7093 42.4356 40.4699C40.4295 40.2674 39.1781 39.8258 39.1781 38.2247C39.1781 36.734 40.4297 35.8505 42.5276 35.8505C44.8832 35.8505 46.0428 36.6604 46.1901 38.4269C46.1901 38.4824 46.1716 38.5375 46.1348 38.5927C46.0979 38.6295 46.0428 38.6663 45.9875 38.6663H45.0305C44.9385 38.6663 44.8464 38.5927 44.8281 38.5007C44.6072 37.4886 44.0367 37.1572 42.5276 37.1572C40.8345 37.1572 40.6319 37.7462 40.6319 38.1878C40.6319 38.7215 40.8713 38.8871 43.1533 39.1816C45.417 39.4762 46.4845 39.8994 46.4845 41.482C46.466 43.1016 45.141 44.0219 42.8036 44.0219Z" fill="#539E43"/>
<path d="M17.7561 16.6739C17.7561 16.3427 17.572 16.0297 17.2776 15.8641L9.47437 11.3736C9.34539 11.2999 9.19826 11.2631 9.05112 11.2446H8.9774C8.83026 11.2446 8.68297 11.2999 8.55415 11.3736L0.750964 15.8641C0.456378 16.0297 0.272461 16.3426 0.272461 16.6739L0.290932 28.7467C0.290932 28.9123 0.38297 29.0779 0.530104 29.1516C0.677397 29.2437 0.861314 29.2437 0.990295 29.1516L5.62803 26.5015C5.92246 26.3359 6.10654 26.023 6.10654 25.6918V20.0418C6.10654 19.7106 6.29045 19.3977 6.58504 19.232L8.55415 18.091C8.70144 17.9989 8.86705 17.962 9.03265 17.962C9.19826 17.962 9.36386 17.9989 9.49284 18.091L11.462 19.232C11.7565 19.3977 11.9405 19.7104 11.9405 20.0418V25.6918C11.9405 26.023 12.1245 26.3359 12.419 26.5015L17.0567 29.1516C17.1283 29.1967 17.2113 29.2207 17.2959 29.2207C17.3806 29.2207 17.4636 29.1967 17.5352 29.1516C17.6825 29.0779 17.7745 28.9123 17.7745 28.7467L17.7561 16.6739ZM55.2629 0.0552946C55.1158 -0.0184315 54.9317 -0.0184315 54.8027 0.0552946C54.6556 0.147333 54.5635 0.294467 54.5635 0.460072V12.4227C54.5635 12.533 54.5085 12.6434 54.3979 12.7171C54.2876 12.7722 54.1771 12.7722 54.0667 12.7171L52.1159 11.5945C51.9729 11.513 51.8112 11.4702 51.6466 11.4702C51.482 11.4702 51.3203 11.513 51.1772 11.5945L43.3741 16.1034C43.0796 16.269 42.8955 16.5819 42.8955 16.9131V25.9125C42.8955 26.2437 43.0796 26.5567 43.3741 26.7223L51.1772 31.2313C51.3203 31.3127 51.482 31.3555 51.6466 31.3555C51.8112 31.3555 51.9729 31.3127 52.1159 31.2313L59.9191 26.7223C60.2135 26.5567 60.3976 26.2438 60.3976 25.9125V3.47838C60.3976 3.1287 60.2135 2.81596 59.9191 2.6502L55.2629 0.0552946ZM54.5452 22.9496C54.5452 23.0416 54.5084 23.1152 54.4347 23.1519L51.7663 24.6978C51.729 24.716 51.6881 24.7254 51.6466 24.7254C51.6051 24.7254 51.5642 24.716 51.5269 24.6978L48.8585 23.1519C48.7847 23.1152 48.7479 23.0231 48.7479 22.9496V19.8577C48.7479 19.7656 48.7847 19.6921 48.8585 19.6553L51.5269 18.1093C51.5642 18.0911 51.6051 18.0816 51.6466 18.0816C51.6881 18.0816 51.729 18.0911 51.7663 18.1093L54.4347 19.6553C54.5084 19.6919 54.5452 19.7841 54.5452 19.8577V22.9496ZM81.2306 19.7841C81.5252 19.6185 81.6908 19.3056 81.6908 18.9742V16.7843C81.6908 16.4531 81.5067 16.1402 81.2306 15.9746L73.4827 11.4841C73.3396 11.4027 73.1779 11.3599 73.0133 11.3599C72.8487 11.3599 72.687 11.4027 72.544 11.4841L64.7408 15.9929C64.4462 16.1585 64.2623 16.4714 64.2623 16.8026V25.8021C64.2623 26.1333 64.4464 26.4462 64.7408 26.6118L72.4887 31.0287C72.7833 31.1943 73.133 31.1943 73.4091 31.0287L78.1019 28.4156C78.2492 28.3419 78.3413 28.1763 78.3413 28.0107C78.3413 27.8451 78.2492 27.6795 78.1019 27.6058L70.262 23.0969C70.1147 23.0048 70.0226 22.8577 70.0226 22.6921V19.8763C70.0226 19.7107 70.1147 19.5451 70.262 19.4714L72.7096 18.0727C72.7812 18.0276 72.8642 18.0036 72.9488 18.0036C73.0335 18.0036 73.1164 18.0276 73.1881 18.0727L75.6358 19.4714C75.7831 19.5634 75.875 19.7106 75.875 19.8763V22.0848C75.875 22.2504 75.967 22.416 76.1143 22.4895C76.186 22.5346 76.2689 22.5586 76.3536 22.5586C76.4383 22.5586 76.5212 22.5346 76.5928 22.4895L81.2306 19.7841Z" fill="#333333"/>
<path d="M72.8937 19.3607C72.921 19.3427 72.953 19.3331 72.9857 19.3331C73.0184 19.3331 73.0504 19.3427 73.0778 19.3607L74.5685 20.2257C74.6236 20.2627 74.6604 20.3178 74.6604 20.3913V22.1214C74.6604 22.195 74.6238 22.2502 74.5685 22.287L73.0778 23.152C73.0504 23.17 73.0184 23.1796 72.9857 23.1796C72.953 23.1796 72.921 23.17 72.8937 23.152L71.4031 22.287C71.3478 22.2502 71.311 22.195 71.311 22.1214V20.3915C71.311 20.3177 71.3477 20.2625 71.4031 20.2259L72.8937 19.3607Z" fill="#539E43"/>
<path d="M30.8044 11.5209C30.6614 11.4395 30.4997 11.3967 30.3351 11.3967C30.1706 11.3967 30.0088 11.4395 29.8658 11.5209L22.1179 15.9928C21.8233 16.1584 21.6577 16.4713 21.6577 16.8025V25.7652C21.6577 26.0964 21.8418 26.4093 22.1179 26.5749L29.8658 31.0471C30.0088 31.1285 30.1706 31.1713 30.3351 31.1713C30.4997 31.1713 30.6614 31.1285 30.8044 31.0471L38.5525 26.5749C38.8469 26.4093 39.0126 26.0964 39.0126 25.7652V16.8026C39.0126 16.4714 38.8284 16.1585 38.5525 15.9929L30.8044 11.5209Z" fill="url(#paint0_linear_21_374)"/>
<mask id="mask0_21_374" style="mask-type:luminance" maskUnits="userSpaceOnUse" x="21" y="11" width="19" height="21">
<path d="M30.8044 11.5209C30.6614 11.4395 30.4997 11.3967 30.3351 11.3967C30.1706 11.3967 30.0088 11.4395 29.8658 11.5209L22.1179 15.9928C21.8233 16.1584 21.6577 16.4713 21.6577 16.8025V25.7652C21.6577 26.0964 21.8418 26.4093 22.1179 26.5749L29.8658 31.0471C30.0088 31.1285 30.1706 31.1713 30.3351 31.1713C30.4997 31.1713 30.6614 31.1285 30.8044 31.0471L38.5525 26.5749C38.8469 26.4093 39.0126 26.0964 39.0126 25.7652V16.8026C39.0126 16.4714 38.8284 16.1585 38.5525 15.9929L30.8044 11.5209Z" fill="white"/>
</mask>
<g mask="url(#mask0_21_374)">
<path d="M38.5709 15.993L30.7862 11.521C30.7097 11.4824 30.6296 11.4515 30.5469 11.429L21.8235 26.3729C21.8957 26.4611 21.983 26.5359 22.0813 26.5938L29.866 31.0659C30.0869 31.1947 30.3445 31.2315 30.5837 31.1578L38.7735 16.1772C38.7182 16.1036 38.6445 16.0481 38.5709 15.993Z" fill="url(#paint1_linear_21_374)"/>
</g>
<mask id="mask1_21_374" style="mask-type:luminance" maskUnits="userSpaceOnUse" x="21" y="11" width="19" height="21">
<path d="M30.8044 11.5209C30.6614 11.4395 30.4997 11.3967 30.3351 11.3967C30.1706 11.3967 30.0088 11.4395 29.8658 11.5209L22.1179 15.9928C21.8233 16.1584 21.6577 16.4713 21.6577 16.8025V25.7652C21.6577 26.0964 21.8418 26.4093 22.1179 26.5749L29.8658 31.0471C30.0088 31.1285 30.1706 31.1713 30.3351 31.1713C30.4997 31.1713 30.6614 31.1285 30.8044 31.0471L38.5525 26.5749C38.8469 26.4093 39.0126 26.0964 39.0126 25.7652V16.8026C39.0126 16.4714 38.8284 16.1585 38.5525 15.9929L30.8044 11.5209Z" fill="white"/>
</mask>
<g mask="url(#mask1_21_374)">
<path fill-rule="evenodd" clip-rule="evenodd" d="M38.5894 26.5751C38.8103 26.4463 38.9759 26.2254 39.0496 25.9862L30.51 11.4104C30.2891 11.3736 30.0498 11.392 29.8475 11.5208L22.1179 15.9746L30.4547 31.176C30.5759 31.1562 30.6937 31.119 30.8044 31.0657L38.5894 26.5751Z" fill="url(#paint2_linear_21_374)"/>
<path fill-rule="evenodd" clip-rule="evenodd" d="M38.5892 26.5751L30.8228 31.0472C30.7132 31.1031 30.595 31.1404 30.4731 31.1576L30.6204 31.4337L39.2333 26.4464V26.3359L39.0125 25.9678C38.9757 26.2254 38.8101 26.4463 38.5892 26.5751Z" fill="url(#paint3_linear_21_374)"/>
<path fill-rule="evenodd" clip-rule="evenodd" d="M38.5892 26.5751L30.8228 31.0472C30.7132 31.1031 30.595 31.1404 30.4731 31.1576L30.6204 31.4337L39.2333 26.4464V26.3359L39.0125 25.9678C38.9757 26.2254 38.8101 26.4463 38.5892 26.5751Z" fill="url(#paint4_linear_21_374)"/>
</g>
</g>
<defs>
<linearGradient id="paint0_linear_21_374" x1="1205.06" y1="357.194" x2="355.808" y2="1691.61" gradientUnits="userSpaceOnUse">
<stop stop-color="#41873F"/>
<stop offset="0.3288" stop-color="#418B3D"/>
<stop offset="0.6352" stop-color="#419637"/>
<stop offset="0.9319" stop-color="#3FA92D"/>
<stop offset="1" stop-color="#3FAE2A"/>
</linearGradient>
<linearGradient id="paint1_linear_21_374" x1="755.369" y1="1101.92" x2="2882.27" y2="-53.6311" gradientUnits="userSpaceOnUse">
<stop offset="0.1376" stop-color="#41873F"/>
<stop offset="0.4032" stop-color="#54A044"/>
<stop offset="0.7136" stop-color="#66B848"/>
<stop offset="0.9081" stop-color="#6CC04A"/>
</linearGradient>
<linearGradient id="paint2_linear_21_374" x1="-52.1953" y1="1000.45" x2="1740.67" y2="1000.45" gradientUnits="userSpaceOnUse">
<stop offset="0.09192" stop-color="#6CC04A"/>
<stop offset="0.2864" stop-color="#66B848"/>
<stop offset="0.5968" stop-color="#54A044"/>
<stop offset="0.8624" stop-color="#41873F"/>
</linearGradient>
<linearGradient id="paint3_linear_21_374" x1="-879.369" y1="300.767" x2="913.474" y2="300.767" gradientUnits="userSpaceOnUse">
<stop offset="0.09192" stop-color="#6CC04A"/>
<stop offset="0.2864" stop-color="#66B848"/>
<stop offset="0.5968" stop-color="#54A044"/>
<stop offset="0.8624" stop-color="#41873F"/>
</linearGradient>
<linearGradient id="paint4_linear_21_374" x1="1174.67" y1="-1127.72" x2="720.471" y2="1252.26" gradientUnits="userSpaceOnUse">
<stop stop-color="#41873F"/>
<stop offset="0.3288" stop-color="#418B3D"/>
<stop offset="0.6352" stop-color="#419637"/>
<stop offset="0.9319" stop-color="#3FA92D"/>
<stop offset="1" stop-color="#3FAE2A"/>
</linearGradient>
<clipPath id="clip0_21_374">
<rect width="81.5417" height="50" fill="white" transform="translate(0.229248)"/>
</clipPath>
</defs>
</svg>
