<svg width="58" height="50" viewBox="0 0 58 50" fill="none" xmlns="http://www.w3.org/2000/svg">
<path d="M47.0882 16.1894C46.4908 15.9845 45.8882 15.7946 45.2812 15.6199C45.3832 15.2033 45.4771 14.7916 45.5604 14.3872C46.9284 7.74667 46.0341 2.39689 42.9795 0.635488C40.0507 -1.05311 35.261 0.707637 30.4238 4.91751C29.947 5.33315 29.4809 5.76077 29.0257 6.19996C28.7211 5.90791 28.411 5.62153 28.0957 5.34097C23.026 0.839655 17.9444 -1.05749 14.8931 0.708953C11.967 2.40281 11.1005 7.43198 12.3321 13.7254C12.4546 14.3487 12.593 14.9688 12.747 15.5851C12.0277 15.7894 11.3336 16.007 10.6694 16.2386C4.72552 18.3109 0.929688 21.5585 0.929688 24.9272C0.929688 28.4063 5.00469 31.896 11.1955 34.012C11.6974 34.1829 12.2035 34.3412 12.7132 34.4868C12.5477 35.1506 12.4007 35.8188 12.2725 36.4908C11.0983 42.675 12.0152 47.5853 14.9334 49.2684C17.9475 51.0065 23.0062 49.2201 27.9319 44.9142C28.3313 44.5642 28.7219 44.2042 29.1034 43.8346C29.5963 44.3102 30.1023 44.7719 30.6209 45.2193C35.3924 49.325 40.1047 50.9829 43.02 49.2951C46.0312 47.5519 47.0099 42.2769 45.7393 35.8592C45.6392 35.3564 45.527 34.8561 45.4027 34.3587C45.758 34.2535 46.1067 34.1451 46.4466 34.0324C52.8825 31.9002 57.07 28.4528 57.07 24.9272C57.07 21.5462 53.1516 18.2767 47.0882 16.1894ZM45.6924 31.7561C45.3854 31.8576 45.0705 31.9557 44.7494 32.0511C44.0389 29.8017 43.0801 27.4101 41.9067 24.9388C43.0264 22.5265 43.9483 20.1653 44.6389 17.9307C45.2132 18.0969 45.7705 18.2721 46.3078 18.457C51.5029 20.2456 54.6718 22.8897 54.6718 24.9272C54.6718 27.0973 51.2494 29.9147 45.6924 31.7561ZM43.3867 36.325C43.9485 39.1627 44.0286 41.7285 43.6564 43.7344C43.3222 45.5368 42.6499 46.7383 41.8183 47.2197C40.0492 48.2438 36.2657 46.9127 32.1852 43.4013C31.7028 42.9854 31.2321 42.5561 30.7735 42.114C32.3556 40.384 33.9365 38.3728 35.4795 36.139C38.1935 35.8982 40.7575 35.5044 43.0828 34.9669C43.1948 35.4171 43.2961 35.8699 43.3867 36.325ZM20.0692 47.0427C18.3407 47.653 16.9639 47.6706 16.1317 47.1908C14.3608 46.1695 13.6246 42.2267 14.6288 36.9381C14.7482 36.3132 14.8849 35.6917 15.0387 35.0743C17.3382 35.5831 19.8836 35.9489 22.604 36.1695C24.1575 38.3552 25.7841 40.3642 27.4233 42.1234C27.075 42.4605 26.7183 42.789 26.3538 43.1085C24.1755 45.0125 21.9928 46.3633 20.0692 47.0427ZM11.9714 31.7427C9.23385 30.807 6.97311 29.591 5.42355 28.264C4.031 27.0717 3.32815 25.8877 3.32815 24.9272C3.32815 22.8829 6.37574 20.2754 11.4589 18.5033C12.0757 18.2883 12.7214 18.0855 13.3913 17.8951C14.0939 20.1802 15.0154 22.5695 16.1275 24.9855C15.001 27.4372 14.0663 29.8647 13.3569 32.1767C12.8916 32.0434 12.4296 31.8987 11.9714 31.7427ZM14.6858 13.2647C13.6308 7.87277 14.3314 3.80544 16.0948 2.78461C17.9729 1.69733 22.126 3.24755 26.5034 7.13439C26.7888 7.38842 27.0696 7.6476 27.3457 7.9118C25.7146 9.66334 24.1029 11.6574 22.5632 13.8302C19.9229 14.075 17.3955 14.4679 15.0718 14.9945C14.9286 14.4213 14.7999 13.8443 14.6858 13.2647ZM38.9023 19.2447C38.3534 18.2967 37.7842 17.3605 37.195 16.437C38.9863 16.6636 40.7025 16.9642 42.3141 17.3318C41.8303 18.8826 41.2273 20.5039 40.5174 22.1662C39.9985 21.1817 39.46 20.2077 38.9023 19.2447ZM29.0268 9.62606C30.133 10.8245 31.2409 12.1625 32.3306 13.6142C30.12 13.5098 27.9058 13.5094 25.6953 13.6129C26.786 12.1745 27.9034 10.8383 29.0268 9.62606ZM19.088 19.2609C18.5372 20.2162 18.0088 21.1841 17.5032 22.164C16.8049 20.5076 16.2073 18.8789 15.7194 17.3061C17.3211 16.9478 19.0292 16.6548 20.8091 16.4324C20.2133 17.3616 19.6395 18.3048 19.088 19.2609ZM20.8602 33.5925C19.0214 33.3872 17.2876 33.1094 15.6863 32.7607C16.1819 31.1598 16.7926 29.4965 17.506 27.8046C18.0136 28.7852 18.5443 29.7537 19.0975 30.7094C19.6663 31.6919 20.2553 32.6541 20.8602 33.5925ZM29.0931 40.3973C27.9562 39.171 26.8225 37.8142 25.7152 36.355C26.7902 36.3971 27.886 36.4186 28.9999 36.4186C30.1442 36.4186 31.2753 36.3929 32.3887 36.3434C31.2955 37.8289 30.1917 39.1877 29.0931 40.3973ZM40.54 27.7182C41.2904 29.4287 41.9229 31.0833 42.4251 32.6568C40.7974 33.0283 39.04 33.3274 37.1882 33.5495C37.7816 32.6089 38.3562 31.6565 38.9117 30.6929C39.4765 29.7136 40.0194 28.7217 40.54 27.7182ZM36.8343 29.4947C35.9839 30.972 35.0857 32.4212 34.1411 33.8401C32.43 33.9613 30.7152 34.0215 28.9999 34.0206C27.2527 34.0206 25.5534 33.9662 23.917 33.8601C22.9477 32.4444 22.0324 30.9927 21.1729 29.5079C20.3174 28.0309 19.5186 26.522 18.7777 24.9844C19.5167 23.4464 20.3134 21.9368 21.1659 20.4587L21.1657 20.459C22.0178 18.9805 22.9259 17.5349 23.8878 16.1254C25.5573 15.9991 27.2694 15.9333 28.9996 15.9333C30.7378 15.9333 32.4523 15.9997 34.1214 16.1269C35.0736 17.5344 35.9758 18.975 36.8264 20.446C37.6818 21.9208 38.4889 23.4231 39.2466 24.9504C38.4967 26.4933 37.6921 28.0091 36.8343 29.4947ZM41.7817 2.71312C43.6615 3.79733 44.3926 8.16948 43.2115 13.903C43.136 14.2688 43.0514 14.6414 42.9593 15.0193C40.6299 14.4815 38.1007 14.0818 35.4527 13.8333C33.9102 11.6366 32.3117 9.63944 30.7071 7.91049C31.1276 7.50512 31.5582 7.11026 31.9983 6.72628C36.1431 3.11948 40.0168 1.69536 41.7817 2.71312ZM28.9999 19.914C31.7685 19.914 34.013 22.1585 34.013 24.9272C34.013 27.6958 31.7685 29.9403 28.9999 29.9403C26.2312 29.9403 23.9867 27.6958 23.9867 24.9272C23.9867 22.1585 26.2312 19.914 28.9999 19.914Z" fill="#00D8FF"/>
</svg>
